<svg width="285" height="55" viewBox="0 0 285 55" fill="none" xmlns="http://www.w3.org/2000/svg">
<mask id="mask0_3_2481" style="mask-type:alpha" maskUnits="userSpaceOnUse" x="0" y="0" width="35" height="54">
<path fill-rule="evenodd" clip-rule="evenodd" d="M0 0.441238H34.7486V53.0442H0V0.441238Z" fill="white"/>
</mask>
<g mask="url(#mask0_3_2481)">
<path fill-rule="evenodd" clip-rule="evenodd" d="M25.01 16.6166C24.7989 14.0931 24.0137 12.213 22.6561 10.9767C21.2985 9.74208 19.2617 9.12216 16.5462 9.12216C11.5393 9.12216 9.03666 11.1263 9.03666 15.1314C9.03666 16.5672 9.55615 17.7669 10.5966 18.7306C11.6352 19.6951 13.3005 20.499 15.592 21.1428C18.3067 21.8836 20.6625 22.5768 22.6561 23.2188C24.6503 23.863 26.4755 24.6048 28.1299 25.4448C29.0617 25.8895 29.9427 26.447 30.7702 27.1145C31.5977 27.7818 32.2976 28.6098 32.8709 29.6C33.4435 30.5898 33.8987 31.7765 34.2389 33.1613C34.5774 34.5468 34.7486 36.2283 34.7486 38.206C34.7486 40.5803 34.3223 42.6835 33.4767 44.5135C32.6264 46.3428 31.4809 47.8893 30.039 49.1508C28.5957 50.4105 26.8983 51.3773 24.9469 52.0445C22.9958 52.7113 20.9373 53.0443 18.7743 53.0443C12.6219 53.0443 7.99732 51.6583 4.90055 48.89C1.80271 46.1213 0.168475 42.0155 0 36.575H8.52691C8.5684 39.0963 9.45082 41.089 11.1684 42.546C12.887 44.0065 15.0397 44.7363 17.6281 44.7363C20.4288 44.7363 22.5496 44.1415 23.9927 42.9533C25.4354 41.7673 26.1565 40.1605 26.1565 38.131C26.1565 37.3415 26.0718 36.6108 25.9014 35.9445C25.7316 35.2758 25.4037 34.6708 24.9159 34.124C24.4267 33.5825 23.7582 33.0995 22.9111 32.6785C22.0612 32.259 20.9583 31.876 19.6008 31.5278C16.3767 30.7385 13.5876 29.933 11.2326 29.1178C8.87757 28.3015 6.93633 27.2875 5.40922 26.075C3.88213 24.8638 2.75764 23.3927 2.03649 21.6608C1.31425 19.9316 0.953848 17.7294 0.953848 15.0581C0.953848 13.0298 1.27204 11.1263 1.90914 9.34498C2.54515 7.56368 3.52138 6.02023 4.83635 4.70801C6.15058 3.39708 7.77401 2.35973 9.70551 1.59153C11.6352 0.825543 13.9149 0.441223 16.5462 0.441223C19.0914 0.441223 21.384 0.825543 23.4201 1.59153C25.456 2.35973 27.2071 3.44561 28.6706 4.85581C30.1343 6.26601 31.2692 7.97183 32.0759 9.97638C32.8802 11.9796 33.3263 14.1924 33.4114 16.6166H25.01Z" fill="#00649D"/>
</g>
<mask id="mask1_3_2481" style="mask-type:alpha" maskUnits="userSpaceOnUse" x="39" y="0" width="41" height="54">
<path fill-rule="evenodd" clip-rule="evenodd" d="M39.2671 0.441238H79.7438V53.0442H39.2671V0.441238Z" fill="white"/>
</mask>
<g mask="url(#mask1_3_2481)">
<path fill-rule="evenodd" clip-rule="evenodd" d="M59.5703 44.2146C61.1388 44.2146 62.6241 43.8824 64.0248 43.2131C65.4236 42.5458 66.644 41.5333 67.6844 40.1723C68.7231 38.8121 69.5398 37.0683 70.1336 34.9411C70.727 32.8156 71.0261 30.2941 71.0261 27.3743C71.0261 21.5376 70.0477 17.1098 68.0975 14.0931C66.1465 11.0759 63.3026 9.5673 59.5703 9.5673C55.8356 9.5673 52.9719 11.0759 50.9779 14.0931C48.9825 17.1098 47.9863 21.5376 47.9863 27.3743C47.9863 33.2116 48.9931 37.4768 51.0091 40.1723C53.0238 42.8699 55.8781 44.2146 59.5703 44.2146ZM59.5703 53.0443C53.036 53.0443 48.018 50.8191 44.5182 46.3666C41.0184 41.9164 39.2671 35.5103 39.2671 27.1506C39.2671 22.9964 39.7133 19.2617 40.6039 15.9472C41.4948 12.6343 42.8092 9.82633 44.5496 7.52747C46.2895 5.2264 48.4101 3.47247 50.9144 2.25952C53.4175 1.04744 56.3017 0.440735 59.5703 0.440735C62.7928 0.440735 65.6685 1.04744 68.1932 2.25952C70.717 3.47247 72.8281 5.23965 74.5255 7.56365C76.2218 9.8903 77.5159 12.7213 78.408 16.0597C79.299 19.3981 79.7438 23.1711 79.7438 27.3743C79.7438 35.8811 78.0145 42.2868 74.5572 46.5893C71.0983 50.8936 66.1029 53.0443 59.5703 53.0443Z" fill="#00649D"/>
</g>
<path fill-rule="evenodd" clip-rule="evenodd" d="M131.866 51.3392V10.6805H119.137V2.07413H125.518H153.504L147.284 10.6805H140.713V51.3392H131.866Z" fill="#00B0DA"/>
<path fill-rule="evenodd" clip-rule="evenodd" d="M153.675 51.3392V10.6827L159.898 2.07413H162.522V51.3392H153.675Z" fill="#00B0DA"/>
<path fill-rule="evenodd" clip-rule="evenodd" d="M194.88 51.3392L176.806 18.2486V51.3392H168.595V2.07413H177.951L194.752 33.7545V2.07413H203.025V51.3392H194.88Z" fill="#00649D"/>
<mask id="mask2_3_2481" style="mask-type:alpha" maskUnits="userSpaceOnUse" x="207" y="0" width="36" height="54">
<path fill-rule="evenodd" clip-rule="evenodd" d="M207.989 0.441238H242.736V53.0442H207.989V0.441238Z" fill="white"/>
</mask>
<g mask="url(#mask2_3_2481)">
<path fill-rule="evenodd" clip-rule="evenodd" d="M233.002 16.6166C232.788 14.0931 232.004 12.213 230.646 10.9767C229.289 9.74208 227.251 9.12216 224.537 9.12216C219.531 9.12216 217.027 11.1263 217.027 15.1314C217.027 16.5672 217.547 17.7669 218.587 18.7306C219.625 19.6951 221.29 20.499 223.582 21.1428C226.296 21.8836 228.651 22.5768 230.646 23.2188C232.641 23.863 234.463 24.6048 236.12 25.4448C237.053 25.8895 237.932 26.447 238.761 27.1145C239.589 27.7818 240.288 28.6098 240.862 29.6C241.434 30.5898 241.888 31.7765 242.23 33.1613C242.568 34.5468 242.736 36.2283 242.736 38.206C242.736 40.5803 242.313 42.6835 241.466 44.5135C240.615 46.3428 239.471 47.8893 238.028 49.1508C236.587 50.4105 234.889 51.3773 232.937 52.0445C230.986 52.7113 228.928 53.0443 226.762 53.0443C220.61 53.0443 215.987 51.6583 212.889 48.89C209.793 46.1213 208.158 42.0155 207.989 36.575H216.519C216.559 39.0963 217.443 41.089 219.157 42.546C220.877 44.0065 223.031 44.7363 225.618 44.7363C228.419 44.7363 230.539 44.1415 231.982 42.9533C233.425 41.7673 234.146 40.1605 234.146 38.131C234.146 37.3415 234.06 36.6108 233.891 35.9445C233.722 35.2758 233.393 34.6708 232.906 34.124C232.417 33.5825 231.748 33.0995 230.901 32.6785C230.05 32.259 228.949 31.876 227.593 31.5278C224.366 30.7385 221.577 29.933 219.222 29.1178C216.867 28.3015 214.927 27.2875 213.4 26.075C211.871 24.8638 210.747 23.3927 210.025 21.6608C209.304 19.9316 208.944 17.7294 208.944 15.0581C208.944 13.0298 209.261 11.1263 209.898 9.34498C210.536 7.56368 211.511 6.02023 212.826 4.70801C214.141 3.39708 215.765 2.35973 217.695 1.59153C219.625 0.825543 221.905 0.441223 224.537 0.441223C227.082 0.441223 229.372 0.825543 231.41 1.59153C233.446 2.35973 235.196 3.44561 236.662 4.85581C238.124 6.26601 239.26 7.97183 240.066 9.97638C240.87 11.9796 241.316 14.1924 241.401 16.6166H233.002Z" fill="#00649D"/>
</g>
<path fill-rule="evenodd" clip-rule="evenodd" d="M264.631 13.1299H264.57L259.161 32.7155H269.915L264.631 13.1299ZM275.133 51.3395L272.46 41.1743H256.868L253.878 51.3395H244.522L259.604 2.07382H269.85L284.743 51.3395H275.133Z" fill="#00649D"/>
<path fill-rule="evenodd" clip-rule="evenodd" d="M93.7141 30.564V51.3393H84.8679V21.8835H93.7141H112.298V30.564H93.7141Z" fill="#00649D"/>
<mask id="mask3_3_2481" style="mask-type:alpha" maskUnits="userSpaceOnUse" x="0" y="0" width="285" height="54">
<path fill-rule="evenodd" clip-rule="evenodd" d="M0 53.0442H284.743V0.441238H0V53.0442Z" fill="white"/>
</mask>
<g mask="url(#mask3_3_2481)">
<path fill-rule="evenodd" clip-rule="evenodd" d="M84.8679 10.6806H114.972V2.07426H84.8679V10.6806Z" fill="#FEFEFE"/>
</g>
<mask id="mask4_3_2481" style="mask-type:alpha" maskUnits="userSpaceOnUse" x="0" y="0" width="285" height="54">
<path fill-rule="evenodd" clip-rule="evenodd" d="M0 53.0442H284.743V0.441238H0V53.0442Z" fill="white"/>
</mask>
<g mask="url(#mask4_3_2481)">
<path fill-rule="evenodd" clip-rule="evenodd" d="M84.8679 10.6806H114.972V2.07426H84.8679V10.6806Z" fill="#00649D"/>
</g>
</svg>
