<svg width="162" height="52" viewBox="0 0 162 52" fill="none" xmlns="http://www.w3.org/2000/svg">
<rect x="0.702515" width="160.428" height="48.0552" rx="20" fill="#008CFF"/>
<path d="M70.6824 8.35816V19.0552H67.7944V8.35816H64.2034V5.79316H74.2734V8.35816H70.6824ZM84.1911 13.6212H79.1371V19.0552H76.2491V5.79316H79.1371V11.0752H84.1911V5.79316H87.0791V19.0552H84.1911V13.6212ZM89.9982 19.0552V5.79316H99.0232V8.35816H92.8862V11.0752H98.1492V13.6212H92.8862V16.4902H99.0232V19.0552H89.9982ZM31.2897 39.2832C30.1244 39.2832 29.1364 39.0868 28.3257 38.6942C27.5151 38.2888 26.8247 37.7695 26.2547 37.1362L28.1547 35.2172C29.0541 36.2305 30.1624 36.7372 31.4797 36.7372C32.1891 36.7372 32.7147 36.5915 33.0567 36.3002C33.3987 36.0088 33.5697 35.6225 33.5697 35.1412C33.5697 34.7738 33.4684 34.4698 33.2657 34.2292C33.0631 33.9758 32.6514 33.8048 32.0307 33.7162L30.7197 33.5452C29.3137 33.3678 28.2814 32.9435 27.6227 32.2722C26.9767 31.6008 26.6537 30.7078 26.6537 29.5932C26.6537 28.9978 26.7677 28.4532 26.9957 27.9592C27.2237 27.4652 27.5467 27.0408 27.9647 26.6862C28.3954 26.3315 28.9147 26.0592 29.5227 25.8692C30.1434 25.6665 30.8464 25.5652 31.6317 25.5652C32.6324 25.5652 33.5127 25.7235 34.2727 26.0402C35.0327 26.3568 35.6851 26.8192 36.2297 27.4272L34.3107 29.3652C33.9941 28.9978 33.6077 28.7002 33.1517 28.4722C32.7084 28.2315 32.1447 28.1112 31.4607 28.1112C30.8147 28.1112 30.3334 28.2252 30.0167 28.4532C29.7001 28.6812 29.5417 28.9978 29.5417 29.4032C29.5417 29.8592 29.6621 30.1885 29.9027 30.3912C30.1561 30.5938 30.5614 30.7395 31.1187 30.8282L32.4297 31.0372C33.7977 31.2525 34.8111 31.6768 35.4697 32.3102C36.1284 32.9308 36.4577 33.8175 36.4577 34.9702C36.4577 35.6035 36.3437 36.1862 36.1157 36.7182C35.8877 37.2502 35.5521 37.7062 35.1087 38.0862C34.6781 38.4662 34.1397 38.7638 33.4937 38.9792C32.8477 39.1818 32.1131 39.2832 31.2897 39.2832ZM44.1722 39.2832C43.2982 39.2832 42.5002 39.1375 41.7782 38.8462C41.0562 38.5548 40.4418 38.1242 39.9352 37.5542C39.4285 36.9715 39.0358 36.2558 38.7572 35.4072C38.4785 34.5458 38.3392 33.5515 38.3392 32.4242C38.3392 31.2968 38.4785 30.3088 38.7572 29.4602C39.0358 28.5988 39.4285 27.8832 39.9352 27.3132C40.4418 26.7305 41.0562 26.2935 41.7782 26.0022C42.5002 25.7108 43.2982 25.5652 44.1722 25.5652C45.0462 25.5652 45.8442 25.7108 46.5662 26.0022C47.2882 26.2935 47.9025 26.7305 48.4092 27.3132C48.9158 27.8832 49.3085 28.5988 49.5872 29.4602C49.8658 30.3088 50.0052 31.2968 50.0052 32.4242C50.0052 33.5515 49.8658 34.5458 49.5872 35.4072C49.3085 36.2558 48.9158 36.9715 48.4092 37.5542C47.9025 38.1242 47.2882 38.5548 46.5662 38.8462C45.8442 39.1375 45.0462 39.2832 44.1722 39.2832ZM44.1722 36.7182C45.0462 36.7182 45.7238 36.4332 46.2052 35.8632C46.6992 35.2932 46.9462 34.4762 46.9462 33.4122V31.4362C46.9462 30.3722 46.6992 29.5552 46.2052 28.9852C45.7238 28.4152 45.0462 28.1302 44.1722 28.1302C43.2982 28.1302 42.6142 28.4152 42.1202 28.9852C41.6388 29.5552 41.3982 30.3722 41.3982 31.4362V33.4122C41.3982 34.4762 41.6388 35.2932 42.1202 35.8632C42.6142 36.4332 43.2982 36.7182 44.1722 36.7182ZM52.4156 39.0552V25.7932H61.2126V28.3582H55.3036V31.0752H60.3386V33.6212H55.3036V39.0552H52.4156ZM69.0589 28.3582V39.0552H66.1709V28.3582H62.5799V25.7932H72.6499V28.3582H69.0589ZM78.6969 39.2832C77.5316 39.2832 76.5436 39.0868 75.7329 38.6942C74.9223 38.2888 74.2319 37.7695 73.6619 37.1362L75.5619 35.2172C76.4613 36.2305 77.5696 36.7372 78.8869 36.7372C79.5963 36.7372 80.1219 36.5915 80.4639 36.3002C80.8059 36.0088 80.9769 35.6225 80.9769 35.1412C80.9769 34.7738 80.8756 34.4698 80.6729 34.2292C80.4703 33.9758 80.0586 33.8048 79.4379 33.7162L78.1269 33.5452C76.7209 33.3678 75.6886 32.9435 75.0299 32.2722C74.3839 31.6008 74.0609 30.7078 74.0609 29.5932C74.0609 28.9978 74.1749 28.4532 74.4029 27.9592C74.6309 27.4652 74.9539 27.0408 75.3719 26.6862C75.8026 26.3315 76.3219 26.0592 76.9299 25.8692C77.5506 25.6665 78.2536 25.5652 79.0389 25.5652C80.0396 25.5652 80.9199 25.7235 81.6799 26.0402C82.4399 26.3568 83.0923 26.8192 83.6369 27.4272L81.7179 29.3652C81.4013 28.9978 81.0149 28.7002 80.5589 28.4722C80.1156 28.2315 79.5519 28.1112 78.8679 28.1112C78.2219 28.1112 77.7406 28.2252 77.4239 28.4532C77.1073 28.6812 76.9489 28.9978 76.9489 29.4032C76.9489 29.8592 77.0693 30.1885 77.3099 30.3912C77.5633 30.5938 77.9686 30.7395 78.5259 30.8282L79.8369 31.0372C81.2049 31.2525 82.2183 31.6768 82.8769 32.3102C83.5356 32.9308 83.8649 33.8175 83.8649 34.9702C83.8649 35.6035 83.7509 36.1862 83.5229 36.7182C83.2949 37.2502 82.9593 37.7062 82.5159 38.0862C82.0853 38.4662 81.5469 38.7638 80.9009 38.9792C80.2549 39.1818 79.5203 39.2832 78.6969 39.2832ZM90.8764 33.2792L89.1474 35.3692V39.0552H86.2594V25.7932H89.1474V32.1012H89.2614L91.1424 29.5362L94.1254 25.7932H97.3934L92.9284 31.2462L97.7924 39.0552H94.3914L90.8764 33.2792ZM98.9759 39.0552V36.7562H100.686V28.0922H98.9759V25.7932H105.284V28.0922H103.574V36.7562H105.284V39.0552H98.9759ZM107.69 39.0552V25.7932H110.578V36.4902H115.632V39.0552H107.69ZM117.765 39.0552V25.7932H120.653V36.4902H125.707V39.0552H117.765ZM132.134 39.2832C130.969 39.2832 129.981 39.0868 129.17 38.6942C128.36 38.2888 127.669 37.7695 127.099 37.1362L128.999 35.2172C129.899 36.2305 131.007 36.7372 132.324 36.7372C133.034 36.7372 133.559 36.5915 133.901 36.3002C134.243 36.0088 134.414 35.6225 134.414 35.1412C134.414 34.7738 134.313 34.4698 134.11 34.2292C133.908 33.9758 133.496 33.8048 132.875 33.7162L131.564 33.5452C130.158 33.3678 129.126 32.9435 128.467 32.2722C127.821 31.6008 127.498 30.7078 127.498 29.5932C127.498 28.9978 127.612 28.4532 127.84 27.9592C128.068 27.4652 128.391 27.0408 128.809 26.6862C129.24 26.3315 129.759 26.0592 130.367 25.8692C130.988 25.6665 131.691 25.5652 132.476 25.5652C133.477 25.5652 134.357 25.7235 135.117 26.0402C135.877 26.3568 136.53 26.8192 137.074 27.4272L135.155 29.3652C134.839 28.9978 134.452 28.7002 133.996 28.4722C133.553 28.2315 132.989 28.1112 132.305 28.1112C131.659 28.1112 131.178 28.2252 130.861 28.4532C130.545 28.6812 130.386 28.9978 130.386 29.4032C130.386 29.8592 130.507 30.1885 130.747 30.3912C131.001 30.5938 131.406 30.7395 131.963 30.8282L133.274 31.0372C134.642 31.2525 135.656 31.6768 136.314 32.3102C136.973 32.9308 137.302 33.8175 137.302 34.9702C137.302 35.6035 137.188 36.1862 136.96 36.7182C136.732 37.2502 136.397 37.7062 135.953 38.0862C135.523 38.4662 134.984 38.7638 134.338 38.9792C133.692 39.1818 132.958 39.2832 132.134 39.2832Z" fill="white"/>
</svg>
